# File created by Blade
# Date/Time:  Mon Sep 22 15:50:36 2014
# Frame Rate: 120.000 fps
#------------------------------------------------------
:FULLY-SPECIFIED
:DEGREES
1159
root 1.993969 36.940362 3.602119 -2.755068 -6.686977 1.429945
RightUpLeg 11.014204 -2.189473 -3.387221
RightLeg -4.801270 -0.000000 0.000000
RightFoot -13.123171 -15.200593 14.756063
RightToeBase 14.458035 -0.000000 -0.000000
LeftUpLeg 11.596817 5.079454 2.042524
LeftLeg -3.871231 -0.000000 0.000000
LeftFoot -10.871119 14.241059 -17.741592
LeftToeBase 9.194892 -0.000000 -0.000000
Spine 0.142791 -28.783100 -7.103639
RightShoulder 10.235591 -24.587992 -8.938937
RightArm 40.902563 -42.077589 48.715831
RightForeArm 11.015572 0.000000 36.319783
RightHand 3.430061 -0.000000 2.008323
RightHandThumb1 -24.326973 -0.000000 -32.862282
LeftShoulder 5.641806 17.454409 20.160478
LeftArm 85.338391 -12.110576 -95.770763
LeftForeArm -55.789518 0.000000 109.391792
LeftHand -8.330701 -0.000000 7.517372
LeftHandThumb1 -26.253704 0.000000 33.147579
Head 7.686866 20.082407 16.047400
1160
root 1.996773 36.940585 3.599407 -2.728326 -6.715499 1.424012
RightUpLeg 10.961992 -2.447766 -3.425344
RightLeg -4.771417 -0.000000 0.000000
RightFoot -13.052543 -14.947414 14.651001
RightToeBase 14.429486 -0.000000 -0.000000
LeftUpLeg 11.564183 5.089715 2.043834
LeftLeg -3.862565 -0.000000 0.000000
LeftFoot -10.937893 14.241790 -17.861569
LeftToeBase 9.346115 -0.000000 -0.000000
Spine 0.097542 -28.766846 -7.056552
RightShoulder 10.241521 -24.628796 -8.923035
RightArm 40.735891 -42.046689 48.850471
RightForeArm 11.110912 -0.000000 36.078478
RightHand 3.414587 0.000000 2.019731
RightHandThumb1 -24.326973 -0.000000 -32.862282
LeftShoulder 5.620518 17.464207 20.168193
LeftArm 85.291527 -12.125118 -95.737530
LeftForeArm -55.607907 0.000000 109.447534
LeftHand -8.313748 -0.000000 7.525073
LeftHandThumb1 -26.253704 0.000000 33.147579
Head 7.684769 20.080118 16.084709
1161
root 2.001409 36.941346 3.599451 -2.708982 -6.733960 1.415282
RightUpLeg 10.945715 -2.426504 -3.421143
RightLeg -4.783009 -0.000000 0.000000
RightFoot -13.046131 -14.945704 14.714234
RightToeBase 14.449527 -0.000000 -0.000000
LeftUpLeg 11.554748 5.074951 2.039580
LeftLeg -3.877512 -0.000000 0.000000
LeftFoot -10.929018 14.279698 -17.826880
LeftToeBase 9.330376 -0.000000 -0.000000
Spine 0.050366 -28.756449 -6.995158
RightShoulder 10.236636 -24.668032 -8.920961
RightArm 40.518789 -41.982051 49.039758
RightForeArm 11.219106 -0.000000 35.868488
RightHand 3.373640 -0.000000 2.040186
RightHandThumb1 -24.326973 -0.000000 -32.862282
LeftShoulder 5.596795 17.521277 20.160084
LeftArm 85.290355 -12.137572 -95.680872
LeftForeArm -55.271980 -0.000000 109.489888
LeftHand -8.347010 -0.000000 7.824278
LeftHandThumb1 -26.253704 0.000000 33.147579
Head 7.706305 20.078141 16.127005
1162
root 2.009806 36.941638 3.603479 -2.715376 -6.732471 1.439077
RightUpLeg 10.997014 -2.016279 -3.394077
RightLeg -4.861487 -0.000000 0.000000
RightFoot -13.128859 -15.354087 14.847892
RightToeBase 14.441334 -0.000000 -0.000000
LeftUpLeg 11.570981 5.051120 1.998711
LeftLeg -3.894164 -0.000000 0.000000
LeftFoot -10.928514 14.297662 -17.860933
LeftToeBase 9.343562 -0.000000 -0.000000
Spine 0.028327 -28.779485 -6.975069
RightShoulder 10.247778 -24.684717 -8.924098
RightArm 40.331719 -41.966179 49.179808
RightForeArm 11.319520 -0.000000 35.621083
RightHand 3.350915 -0.000000 2.096800
RightHandThumb1 -24.326973 -0.000000 -32.862282
LeftShoulder 5.553683 17.598229 20.136248
LeftArm 85.306812 -12.165156 -95.620567
LeftForeArm -55.053141 -0.000000 109.506193
LeftHand -8.623159 -0.000000 8.213135
LeftHandThumb1 -26.253704 0.000000 33.147579
Head 7.722899 20.103258 16.142163
1163
root 2.013858 36.941574 3.598949 -2.670860 -6.767412 1.430692
RightUpLeg 10.932627 -2.294728 -3.436078
RightLeg -4.849342 -0.000000 0.000000
RightFoot -13.042678 -15.063142 14.767749
RightToeBase 14.454695 -0.000000 -0.000000
LeftUpLeg 11.523530 5.063493 1.995229
LeftLeg -3.887601 -0.000000 0.000000
LeftFoot -10.901053 14.311550 -17.775645
LeftToeBase 9.221587 -0.000000 -0.000000
Spine -0.041024 -28.767548 -6.898898
RightShoulder 10.236474 -24.689747 -8.914913
RightArm 40.139007 -41.945012 49.326475
RightForeArm 11.305305 0.000000 35.399395
RightHand 3.271643 -0.000000 2.050997
RightHandThumb1 -24.326973 -0.000000 -32.862282
LeftShoulder 5.507365 17.581377 20.127345
LeftArm 85.214327 -12.230554 -95.560543
LeftForeArm -54.867236 -0.000000 109.515505
LeftHand -8.649021 0.000000 8.194166
LeftHandThumb1 -26.253704 0.000000 33.147579
Head 7.725333 20.152371 16.164768
1164
root 2.014811 36.941850 3.590833 -2.592993 -6.812507 1.413846
RightUpLeg 10.820910 -2.688153 -3.477403
RightLeg -4.835673 -0.000000 0.000000
RightFoot -12.937680 -14.695558 14.677856
RightToeBase 14.517752 -0.000000 -0.000000
LeftUpLeg 11.441634 5.085662 2.005382
LeftLeg -3.895140 -0.000000 0.000000
LeftFoot -10.936889 14.333350 -17.837086
LeftToeBase 9.311637 -0.000000 -0.000000
Spine -0.154832 -28.738603 -6.805078
RightShoulder 10.211008 -24.727505 -8.895939
RightArm 39.969246 -41.906138 49.458716
RightForeArm 11.277955 0.000000 35.143378
RightHand 3.316473 -0.000000 2.031754
RightHandThumb1 -24.326973 -0.000000 -32.862282
LeftShoulder 5.466923 17.625084 20.117206
LeftArm 85.196189 -12.261059 -95.489904
LeftForeArm -54.757179 -0.000000 109.493271
LeftHand -8.306199 0.000000 8.030088
LeftHandThumb1 -26.253704 0.000000 33.147579
Head 7.746721 20.158946 16.195828
1165
root 2.019217 36.941357 3.590782 -2.569938 -6.833799 1.420111
RightUpLeg 10.801099 -2.721926 -3.494797
RightLeg -4.849779 -0.000000 0.000000
RightFoot -12.894267 -14.644905 14.638345
RightToeBase 14.427408 -0.000000 -0.000000
LeftUpLeg 11.423510 5.101500 1.991710
LeftLeg -3.900662 -0.000000 0.000000
LeftFoot -10.951891 14.325640 -17.866602
LeftToeBase 9.340814 -0.000000 -0.000000
Spine -0.209521 -28.729933 -6.755880
RightShoulder 10.196608 -24.756944 -8.894834
RightArm 39.794509 -41.858686 49.593145
RightForeArm 11.222124 0.000000 34.913241
RightHand 3.304760 -0.000000 1.882466
RightHandThumb1 -24.326973 -0.000000 -32.862282
LeftShoulder 5.402146 17.674825 20.087626
LeftArm 85.188666 -12.303594 -95.402342
LeftForeArm -54.748077 -0.000000 109.433170
LeftHand -8.283448 -0.000000 7.939862
LeftHandThumb1 -26.253704 0.000000 33.147579
Head 7.770778 20.204063 16.229990
1166
root 2.024360 36.941642 3.592751 -2.560646 -6.866014 1.423730
RightUpLeg 10.794472 -2.636100 -3.496929
RightLeg -4.856749 -0.000000 0.000000
RightFoot -12.925198 -14.700550 14.689238
RightToeBase 14.468644 -0.000000 -0.000000
LeftUpLeg 11.430540 5.104627 1.977250
LeftLeg -3.920635 -0.000000 0.000000
LeftFoot -10.942986 14.344787 -17.868826
LeftToeBase 9.331481 -0.000000 -0.000000
Spine -0.246820 -28.712400 -6.700270
RightShoulder 10.177368 -24.793805 -8.894156
RightArm 39.648418 -41.804413 49.685724
RightForeArm 11.094812 -0.000000 34.674851
RightHand 3.163753 -0.000000 2.106075
RightHandThumb1 -24.326973 -0.000000 -32.862282
LeftShoulder 5.301707 17.704351 20.019918
LeftArm 85.172066 -12.346327 -95.290017
LeftForeArm -54.774953 -0.000000 109.345420
LeftHand -8.283259 0.000000 7.768104
LeftHandThumb1 -26.253704 0.000000 33.147579
Head 7.774667 20.247407 16.219535
1167
root 2.030292 36.941767 3.607330 -2.637062 -6.849360 1.421396
RightUpLeg 10.940342 -1.975385 -3.408557
RightLeg -4.923621 -0.000000 0.000000
RightFoot -13.133839 -15.348280 14.976686
RightToeBase 14.589547 -0.000000 -0.000000
LeftUpLeg 11.553049 5.077342 1.973468
LeftLeg -3.972044 -0.000000 0.000000
LeftFoot -10.920688 14.356481 -17.830364
LeftToeBase 9.315697 -0.000000 -0.000000
Spine -0.188438 -28.736640 -6.670792
RightShoulder 10.171152 -24.823784 -8.912314
RightArm 39.472037 -41.720778 49.813039
RightForeArm 11.039871 -0.000000 34.425186
RightHand 3.242059 -0.000000 1.982680
RightHandThumb1 -24.326973 -0.000000 -32.862282
LeftShoulder 5.191420 17.741630 19.940247
LeftArm 85.165062 -12.398751 -95.186729
LeftForeArm -54.828055 -0.000000 109.244388
LeftHand -8.280579 -0.000000 7.581699
LeftHandThumb1 -26.253704 0.000000 33.147579
Head 7.812876 20.318537 16.222005
1168
root 2.033574 36.941489 3.603636 -2.595941 -6.911981 1.414485
RightUpLeg 10.871217 -2.174509 -3.441566
RightLeg -4.900668 -0.000000 0.000000
RightFoot -13.050697 -15.093668 14.898766
RightToeBase 14.550809 -0.000000 -0.000000
LeftUpLeg 11.516910 5.117383 1.976002
LeftLeg -3.974107 -0.000000 0.000000
LeftFoot -10.933556 14.350964 -17.866228
LeftToeBase 9.301367 -0.000000 -0.000000
Spine -0.261756 -28.655020 -6.591803
RightShoulder 10.137863 -24.866927 -8.898258
RightArm 39.270916 -41.622816 49.980855
RightForeArm 10.937874 0.000000 34.176131
RightHand 3.189533 0.000000 1.969436
RightHandThumb1 -24.326973 -0.000000 -32.862282
LeftShoulder 5.116109 17.743064 19.891144
LeftArm 85.131969 -12.473426 -95.066038
LeftForeArm -54.909759 -0.000000 109.145249
LeftHand -7.976405 -0.000000 7.249942
LeftHandThumb1 -26.253704 0.000000 33.147579
Head 7.812091 20.279851 16.193656
1169
root 2.036744 36.941515 3.597851 -2.536766 -6.980223 1.404197
RightUpLeg 10.779499 -2.445981 -3.476027
RightLeg -4.886365 -0.000000 0.000000
RightFoot -12.997632 -14.818802 14.889876
RightToeBase 14.612232 -0.000000 -0.000000
LeftUpLeg 11.456032 5.153339 1.978698
LeftLeg -3.966732 -0.000000 0.000000
LeftFoot -10.945482 14.357325 -17.875287
LeftToeBase 9.306543 -0.000000 -0.000000
Spine -0.353880 -28.589495 -6.492101
RightShoulder 10.121496 -24.895678 -8.891643
RightArm 39.022033 -41.507137 50.190252
RightForeArm 10.952539 0.000000 33.939589
RightHand 3.171104 -0.000000 1.833908
RightHandThumb1 -24.326973 -0.000000 -32.862282
LeftShoulder 4.990661 17.742336 19.825741
LeftArm 85.091028 -12.546478 -94.941282
LeftForeArm -54.914684 -0.000000 109.053725
LeftHand -8.067455 0.000000 7.245438
LeftHandThumb1 -26.253704 0.000000 33.147579
Head 7.804680 20.335630 16.156316
1170
root 2.041106 36.941889 3.600292 -2.533374 -7.039982 1.391551
RightUpLeg 10.765049 -2.353546 -3.461408
RightLeg -4.858912 -0.000000 0.000000
RightFoot -13.131202 -14.804451 15.154179
RightToeBase 14.854115 -0.000000 -0.000000
LeftUpLeg 11.474203 5.173522 1.985454
LeftLeg -3.981176 -0.000000 0.000000
LeftFoot -10.950624 14.370160 -17.875918
LeftToeBase 9.284023 -0.000000 -0.000000
Spine -0.392083 -28.503424 -6.401263
RightShoulder 10.107707 -24.943470 -8.915377
RightArm 38.804312 -41.391259 50.362378
RightForeArm 10.884070 -0.000000 33.691266
RightHand 3.205615 -0.000000 1.700054
RightHandThumb1 -24.326973 -0.000000 -32.862282
LeftShoulder 4.872146 17.742338 19.753929
LeftArm 85.054879 -12.620297 -94.833596
LeftForeArm -54.932971 0.000000 108.946992
LeftHand -8.064696 0.000000 7.388119
LeftHandThumb1 -26.253704 0.000000 33.147579
Head 7.821298 20.373820 16.105526
